<svg data-name="Layer 1" viewBox="0 0 512 512" xmlns="http://www.w3.org/2000/svg"><path d="M297.32 256a18.76 18.76 0 0 0-5.51-13.29L107 57.89a18.8 18.8 0 0 0-26.59 26.59L251.94 256 80.41 427.53A18.79 18.79 0 0 0 107 454.11l184.81-184.82a18.76 18.76 0 0 0 5.51-13.29Z" fill="#ffffff" class="fill-000000"></path><path d="M431.59 242.71 246.78 57.89a18.8 18.8 0 0 0-26.58 26.59L391.72 256 220.2 427.53a18.79 18.79 0 0 0 26.58 26.58l184.81-184.82a18.78 18.78 0 0 0 0-26.58Z" fill="#ffffff" class="fill-000000"></path></svg>