<svg viewBox="0 0 256 256" xml:space="preserve" xmlns="http://www.w3.org/2000/svg" enable-background="new 0 0 256 256"><path d="M128 65.8c13.8 0 25-11.2 25-25s-11.2-25-25-25-25 11.2-25 25c0 13.7 11.2 25 25 25zm0-39.8c8.1 0 14.8 6.6 14.8 14.8 0 8.1-6.6 14.8-14.8 14.8-8.1 0-14.8-6.6-14.8-14.8.1-8.2 6.7-14.8 14.8-14.8zM73.6 162.9c-2.1.5-3.7 2.4-3.8 4.6L66 226c-.1 2.3-2 4-4.3 4h-29c-2.3 0-4.2-1.8-4.3-4l-3.9-58.4c-.1-2.1-1.6-3.9-3.6-4.5-1.1-.3-4.3-1.3-4.8-1.9-.4-.6-.6-3.9-.7-5.6l-3.5-61.9c5-1.5 13.2-4.1 17.5-5.5l14.3 13.4c2 1.8 5 1.8 7 0L65 88.2c1.4.4 3.1 1 5 1.6 2.7.9 5.6-.6 6.4-3.3.9-2.7-.6-5.6-3.3-6.4-4.3-1.4-7.8-2.5-7.8-2.5-1.8-.6-3.7-.1-5.1 1.1l-13 12.2-13-12.2c-1.4-1.3-3.3-1.7-5.1-1.1 0 0-13.7 4.4-20.6 6.5-4.3 1.3-6.9 4.7-6.9 9.2v1.1l3.4 61s0 .9.1 1.1c.6 9 1.9 12.3 9.4 15.2l3.6 55c.5 7.6 6.9 13.6 14.5 13.6h29c7.6 0 14-6 14.5-13.6l3.7-57c.4-1 .4-2.2.1-3.3-.7-2.7-3.6-4.2-6.3-3.5zM47.1 69.3c13.8 0 25-11.2 25-25s-11.2-25-25-25-25 11.2-25 25 11.3 25 25 25zm0-39.7c8.1 0 14.8 6.6 14.8 14.8s-6.6 14.8-14.8 14.8c-8.1 0-14.8-6.6-14.8-14.8S39 29.6 47.1 29.6zM166.7 83.9c-6.9-2.1-20.6-6.5-20.6-6.5-1.8-.6-3.7-.1-5.1 1.1l-13 12.2-13-12.2c-1.4-1.3-3.3-1.7-5.1-1.1 0 0-13.7 4.4-20.6 6.5-4.4 1.3-6.9 4.7-6.9 9.2l3.4 62.3.1 1c.6 9 1.9 12.4 9.4 15.2l3.6 55c.5 7.6 6.9 13.6 14.5 13.6h29.1c7.6 0 14-6 14.5-13.6l3.6-55c7.5-2.9 8.8-6.3 9.4-15.2l3.5-62.4v-.9c.1-4.6-2.4-7.9-6.8-9.2zm-6.8 70.7-.1 1c-.1 1.6-.3 4.8-.7 5.4-.5.6-3.8 1.6-4.9 1.9-2 .6-3.5 2.4-3.6 4.6l-3.8 58.4c-.1 2.3-2 4-4.3 4h-29.1c-2.3 0-4.1-1.8-4.3-4l-3.8-58.4c-.1-2.1-1.6-3.9-3.6-4.6-1.1-.3-4.3-1.3-4.8-1.9-.4-.6-.6-3.9-.7-5.4l-3.5-61.9v-.3c5-1.5 13.2-4.1 17.5-5.5l14.3 13.4c2 1.8 5 1.8 7 0L145.8 88c4.3 1.4 12.5 4 17.5 5.5l-3.4 61.1zM247.6 83.9c-6.9-2.1-20.6-6.5-20.6-6.5-1.8-.6-3.7-.1-5.1 1.1l-13 12.2-13-12.2c-1.4-1.3-3.3-1.7-5.1-1.1 0 0-3.5 1.1-7.8 2.5-2.7.9-4.2 3.7-3.3 6.4.9 2.7 3.7 4.2 6.4 3.3 1.9-.6 3.6-1.2 5-1.6l14.3 13.4c2 1.8 5 1.8 7 0L226.7 88c4.3 1.4 12.4 3.9 17.5 5.5l-3.4 61.1-.1 1c-.1 1.6-.3 4.8-.7 5.4-.5.6-3.8 1.6-4.9 1.9-2 .6-3.5 2.4-3.6 4.6l-3.8 58.4c-.2 2.3-2.1 4-4.3 4h-29.1c-2.2 0-4.1-1.8-4.3-4l-3.9-58.4c-.1-2.1-1.8-3.9-3.8-4.6-2.7-.9-5.4.6-6.3 3.3-.3 1-.3 2.1 0 3l3.8 57.4c.5 7.6 6.8 13.6 14.5 13.6h29.1c7.6 0 14-6 14.5-13.6l3.6-55c7.5-2.9 8.8-6.2 9.4-15.1 0-.4.1-1.3.1-1.3l3.4-61.3V93c0-4.4-2.5-7.8-6.8-9.1zM208.9 69.3c13.8 0 25-11.2 25-25s-11.2-25-25-25-25 11.2-25 25 11.2 25 25 25zm0-39.7c8.1 0 14.8 6.6 14.8 14.8s-6.6 14.8-14.8 14.8c-8.1 0-14.8-6.6-14.8-14.8s6.6-14.8 14.8-14.8z" fill="#ffffff" class="fill-000000"></path></svg>